HIERARCHY
ROOT Hips
{
	OFFSET 0.000000 0.000000 0.000000
	CHANNELS 6 Xposition Yposition Zposition Zrotation Yrotation Xrotation 
	JOINT LHipJoint
	{
		OFFSET 0.000000 0.000000 0.000000
		CHANNELS 3 Zrotation Yrotation Xrotation
		JOINT LeftUpLeg
		{
			OFFSET 1.363060 -1.794630 0.839290
			CHANNELS 3 Zrotation Yrotation Xrotation
			JOINT LeftLeg
			{
				OFFSET 2.448110 -6.726130 0.000000
				CHANNELS 3 Zrotation Yrotation Xrotation
				JOINT LeftFoot
				{
					OFFSET 2.562200 -7.039590 0.000000
					CHANNELS 3 Zrotation Yrotation Xrotation
					JOINT LeftToeBase
					{
						OFFSET 0.157640 -0.433110 2.322550
						CHANNELS 3 Zrotation Yrotation Xrotation
						End Site
						{
							OFFSET 0.000000 0.000000 0.000000
						}
					}
				}
			}
		}
	}
	JOINT RHipJoint
	{
		OFFSET 0.000000 0.000000 0.000000
		CHANNELS 3 Zrotation Yrotation Xrotation
		JOINT RightUpLeg
		{
			OFFSET -1.305520 -1.794630 0.839290
			CHANNELS 3 Zrotation Yrotation Xrotation
			JOINT RightLeg
			{
				OFFSET -2.542530 -6.985550 0.000000
				CHANNELS 3 Zrotation Yrotation Xrotation
				JOINT RightFoot
				{
					OFFSET -2.568260 -7.056230 0.000000
					CHANNELS 3 Zrotation Yrotation Xrotation
					JOINT RightToeBase
					{
						OFFSET -0.164730 -0.452590 2.363150
						CHANNELS 3 Zrotation Yrotation Xrotation
						End Site
						{
							OFFSET 0.000000 0.000000 0.000000
						}
					}
				}
			}
		}
	}
}
MOTION
Frames: 13
Frame Time: 0.008333
-9.950156 16.717518 -2.805066 10.666511 84.165737 20.924332 -9.528042 0.538731 2.314861 -16.392787 3.018844 -40.506910 -2.252508 0.721050 28.603456 1.486216 7.056800 -7.486992 0.210200 0.000000 -11.888699 11.116982 -4.837251 -0.261185 -0.423517 -11.122704 -3.000050 0.519216 -3.052206 39.506993 0.480242 20.961029 19.714377 9.168000 0.000000 -84.720800
-9.786471 16.661409 -2.809262 13.113057 83.832067 23.071305 -9.461726 0.577054 2.007482 -17.133921 3.874086 -40.899448 -2.188429 0.915244 31.056633 1.498993 7.069105 -8.040475 0.104100 0.000000 -11.171100 11.383445 -4.805528 -0.267404 -1.435091 -11.355583 -4.264866 0.295824 -3.234845 42.775540 0.326858 21.026852 20.861588 9.665200 -0.000001 -82.311100
-9.628501 16.601681 -2.813797 15.379580 83.492426 25.019099 -9.379662 0.616085 1.701513 -17.846595 4.652248 -41.209594 -2.127385 1.095510 33.459274 1.520195 7.071507 -8.830509 -0.039700 0.000000 -10.647300 11.644462 -4.737876 -0.307428 -2.409762 -11.565897 -5.549936 0.064507 -3.426089 46.143517 0.169355 20.449235 21.755859 9.778000 0.000000 -79.625900
-9.475875 16.539173 -2.819092 17.516438 83.154820 26.816783 -9.284652 0.656316 1.401618 -18.525385 5.333745 -41.400810 -2.072788 1.258631 35.763670 1.551683 7.076199 -9.847116 -0.219399 -0.000000 -10.314000 11.900058 -4.635502 -0.383693 -3.351415 -11.768521 -6.841149 -0.176451 -3.628479 49.576645 0.006402 19.181147 22.342917 9.446600 0.000000 -76.899300
-9.328110 16.474890 -2.825615 19.534055 82.823787 28.474801 -9.180983 0.698577 1.111123 -19.164577 5.910293 -41.449490 -2.026800 1.403497 37.931653 1.595280 7.097526 -11.062503 -0.431600 -0.000000 -10.159600 12.148581 -4.499631 -0.495055 -4.257990 -11.967118 -8.125570 -0.428151 -3.842632 53.036189 -0.165154 17.227556 22.565118 8.659500 -0.000000 -74.271600
-9.184522 16.409991 -2.833816 21.428963 82.501373 29.992559 -9.073196 0.743560 0.832990 -19.759959 6.379176 -41.344082 -1.990034 1.530278 39.933747 1.652790 7.152753 -12.432798 -0.672100 0.000000 -10.165099 12.387915 -4.332422 -0.637450 -5.126075 -12.158835 -9.394594 -0.690400 -4.067959 56.482238 -0.348729 14.654289 22.363548 7.463000 0.000000 -71.741800
-9.044445 16.345668 -2.844096 23.184502 82.188368 31.358275 -8.966201 0.791557 0.569494 -20.309018 6.744135 -41.085409 -1.961784 1.640199 41.749579 1.725512 7.259448 -13.903275 -0.936700 0.000000 -10.301800 12.614997 -4.137435 -0.804457 -5.949043 -12.334668 -10.644675 -0.961720 -4.302936 59.874456 -0.546305 11.586241 21.686976 5.960200 -0.000000 -69.195200
-8.907097 16.283126 -2.856522 24.808967 81.885331 32.588085 -8.861982 0.842772 0.322361 -20.816241 7.009247 -40.683070 -1.940254 1.734694 43.366375 1.814394 7.436164 -15.413287 -1.222100 -0.000001 -10.530900 12.829278 -3.919412 -0.988484 -6.725063 -12.485954 -11.878075 -1.239337 -4.545902 63.173010 -0.757029 8.201972 20.505279 4.300400 -0.000001 -66.453401
-8.771861 16.223609 -2.871231 26.271997 81.591811 33.660198 -8.765363 0.896668 0.092869 -21.280099 7.187566 -40.158450 -1.923085 1.816136 44.782360 1.918437 7.692421 -16.904124 -1.525000 0.000000 -10.804900 13.026643 -3.685000 -1.179854 -7.440812 -12.596512 -13.099953 -1.519729 -4.793212 66.336728 -0.976781 4.705926 18.825774 2.652400 -0.000001 -63.365100
-8.638097 16.168199 -2.888055 27.567276 81.308305 34.579395 -8.678373 0.952695 -0.118382 -21.704517 7.291948 -39.538414 -1.907984 1.886617 46.001582 2.035705 8.032654 -18.323469 -1.841800 0.000000 -11.074899 13.205353 -3.441206 -1.368962 -8.086676 -12.653722 -14.320042 -1.798231 -5.040591 69.327142 -1.197822 1.308349 16.694707 1.176200 0.000000 -59.826401
-8.505375 16.117865 -2.906623 28.698385 81.037887 35.358534 -8.601682 1.010333 -0.311354 -22.093793 7.338772 -38.850146 -1.893018 1.947682 47.033597 2.162637 8.450587 -19.629667 -2.167800 -0.000000 -11.298400 13.364903 -3.195623 -1.545957 -8.653445 -12.647098 -15.548064 -2.069106 -5.283080 72.109540 -1.409575 -1.804721 14.194266 -0.007101 -0.000000 -55.806200
-8.373103 16.073592 -2.926540 29.651635 80.780787 35.996831 -8.537767 1.069256 -0.486508 -22.447810 7.346824 -38.125037 -1.877754 2.001219 47.889570 2.294432 8.929382 -20.794757 -2.496000 0.000000 -11.448700 13.502069 -2.953908 -1.702403 -9.126095 -12.566041 -16.795321 -2.325630 -5.513658 74.652230 -1.600058 -4.492600 11.431935 -0.833500 0.000000 -51.339900
-8.241028 16.036036 -2.947228 30.443365 80.542200 36.516865 -8.485852 1.129308 -0.644864 -22.769116 7.335394 -37.385164 -1.862456 2.047769 48.581907 2.425692 9.443512 -21.806301 -2.817700 -0.000000 -11.516300 13.617166 -2.721514 -1.831311 -9.496936 -12.408153 -18.067734 -2.560132 -5.726763 76.930841 -1.757086 -6.662751 8.520720 -1.296401 0.000000 -46.504700
